<svg width="1100" height="720" viewBox="0 0 1100 720" fill="none" xmlns="http://www.w3.org/2000/svg">
<defs>
  <linearGradient id="bg" x1="0" y1="0" x2="1" y2="1"><stop stop-color="#0B4B43"/><stop offset="1" stop-color="#04201F"/></linearGradient>
  <filter id="shadow" x="-20%" y="-20%" width="140%" height="140%"><feDropShadow dx="0" dy="18" stdDeviation="22" flood-color="#000" flood-opacity=".18"/></filter>
</defs>
<rect width="1100" height="720" rx="36" fill="url(#bg)"/>
<g filter="url(#shadow)">
  <rect x="124" y="96" width="852" height="530" rx="28" fill="#FAFBF8"/>
  <text x="176" y="164" fill="#0B1820" font-family="Arial, sans-serif" font-size="46" font-weight="700">aveni</text>
  <text x="176" y="202" fill="#6B7B7A" font-family="Arial, sans-serif" font-size="18">AI note-taking tools for UK financial advisers</text>
  <rect x="176" y="242" width="748" height="62" rx="18" fill="#EEF4F0"/>
  <text x="468" y="280" fill="#536965" font-family="Arial, sans-serif" font-size="16">Workflow</text>
  <text x="620" y="280" fill="#536965" font-family="Arial, sans-serif" font-size="16">Compliance</text>
  <text x="796" y="280" fill="#536965" font-family="Arial, sans-serif" font-size="16">Pricing</text>
  <g font-family="Arial, sans-serif" font-size="21" fill="#142A2A">
    <text x="176" y="360" font-weight="700">Aveni</text>
    <text x="176" y="424">Saturn</text>
    <text x="176" y="488">Fathom</text>
    <text x="176" y="552">Otter</text>
  </g>
  <g fill="#D9F4E4" stroke="#5DBD82"><circle cx="510" cy="352" r="17"/><circle cx="510" cy="416" r="17"/><circle cx="510" cy="480" r="17"/><circle cx="510" cy="544" r="17"/>
  <circle cx="675" cy="352" r="17"/><circle cx="675" cy="416" r="17"/><circle cx="675" cy="480" r="17"/><circle cx="675" cy="544" r="17"/>
  <circle cx="846" cy="352" r="17"/><circle cx="846" cy="416" r="17"/><circle cx="846" cy="480" r="17"/><circle cx="846" cy="544" r="17"/></g>
  <g stroke="#16824D" stroke-width="4" stroke-linecap="round" stroke-linejoin="round">
    <path d="M502 352l6 6 10-12"/><path d="M502 416l6 6 10-12"/><path d="M502 480l6 6 10-12"/><path d="M502 544l6 6 10-12"/>
    <path d="M667 352l6 6 10-12"/><path d="M667 416l6 6 10-12"/><path d="M667 480l6 6 10-12"/><path d="M667 544l6 6 10-12"/>
    <path d="M838 352l6 6 10-12"/><path d="M838 416l6 6 10-12"/><path d="M838 480l6 6 10-12"/><path d="M838 544l6 6 10-12"/>
  </g>
  <rect x="748" y="116" width="174" height="38" rx="19" fill="#E9F7EF"/>
  <text x="770" y="141" fill="#16824D" font-family="Arial, sans-serif" font-size="15" font-weight="700">2026 BUYER GUIDE</text>
</g>
</svg>